# xmcd CD database file
#
# Track frame offsets:
#	150
#	23038
#	43185
#	58928
#	75005
#	86533
#	107190
#	127103
#	149618
#	167443
#	183423
#	200303
#	216923
#	236033
#
# Disc length: 3349 seconds
#
# Revision: 0
# Processed by: cddbd v1.5.1PL0 Copyright (c) Steve Scherf et al.
# Submitted via: CDex 1.51
#
DISCID=c20d130e
DTITLE=Einar Iversen - Who Can I Turn To
DYEAR=1991
DGENRE=Jazz
TTITLE0=On Green Dolphin Street
TTITLE1=But Beautiful
TTITLE2=How About You
TTITLE3=Sophisticated Lady
TTITLE4=Lill
TTITLE5=Things We Did Last Summer
TTITLE6=Francin'
TTITLE7=Solitude
TTITLE8=Meditation
TTITLE9=Predule To A Kiss
TTITLE10=Emily
TTITLE11=Who Can I Turn To
TTITLE12=Autumn In New York
TTITLE13=Lush Life
EXTD=YEAR: 1991
EXTT0=
EXTT1=
EXTT2=
EXTT3=
EXTT4=
EXTT5=
EXTT6=
EXTT7=
EXTT8=
EXTT9=
EXTT10=
EXTT11=
EXTT12=
EXTT13=
PLAYORDER=
